# Blender 3.6.5
# www.blender.org
mtllib arena_one_way.mtl
o arena_
v -49.990280 0.000000 0.962914
v -49.990280 -0.000000 -0.037086
v -49.990280 1.000000 -0.037087
v -49.990280 1.000000 0.962913
v 0.009718 -0.000000 -0.037086
v 0.009718 0.000000 0.962914
v 0.009718 1.000000 0.962913
v 0.009718 1.000000 -0.037087
v -49.990280 0.000004 49.962910
v -49.990280 0.000004 49.000271
v -49.990280 1.000004 49.000271
v -49.990280 1.000004 49.962910
v 0.009718 0.000004 49.962910
v 0.009718 1.000004 49.962910
v 0.009718 1.000004 49.000271
v 0.009718 0.000004 49.000271
v -0.990280 0.000004 49.962910
v -0.990280 1.000004 49.962910
v -0.990280 -0.000000 -0.037086
v -0.990280 1.000000 -0.037087
v -0.990282 8.000000 -0.037087
v 0.009718 8.000000 -0.037087
v 0.009718 8.000000 0.962913
v -0.990282 8.000000 0.962913
v -0.990280 0.000000 0.962914
v 0.009718 8.000004 49.000271
v -0.990282 8.000004 49.000271
v 0.009718 8.000004 49.962910
v -0.990282 8.000004 49.962910
v -0.990280 0.000004 49.000271
v -49.035118 0.000004 49.962910
v -49.035118 1.000004 49.962910
v -49.035118 1.000000 -0.037087
v -49.035118 -0.000000 -0.037086
v -49.990280 8.000000 -0.037087
v -49.035118 8.000000 -0.037087
v -49.035118 8.000000 0.962913
v -49.990280 8.000000 0.962913
v -49.035118 0.000000 0.962914
v -49.035118 8.000004 49.000271
v -49.990280 8.000004 49.000271
v -49.035118 8.000004 49.962910
v -49.990280 8.000004 49.962910
v -49.035118 0.000004 49.000271
v -49.035118 1.000000 0.962913
v -49.035118 1.000004 49.000271
v -0.990280 1.000000 0.962913
v -0.990280 1.000004 49.000271
v -49.990280 1.000002 23.500002
v -49.990280 1.000002 26.500002
v 0.009718 1.000002 23.499998
v 0.009718 1.000002 26.499998
v 0.009718 3.000002 26.499998
v 0.009718 3.000002 23.499998
v -49.990280 3.000002 26.500002
v -49.990280 3.000002 23.500002
v -0.990281 3.000002 26.499998
v -0.990281 3.000002 23.499998
v -0.990280 1.000002 23.499998
v -0.990280 1.000002 26.499998
v -49.035118 3.000002 26.500002
v -49.035118 3.000002 23.500002
v -49.035118 1.000002 23.500002
v -49.035118 1.000002 26.500002
vn -1.0000 -0.0000 -0.0000
vn 1.0000 -0.0000 -0.0000
vn -0.0000 -0.0000 1.0000
vn -0.0000 -0.0000 -1.0000
vn -0.0000 1.0000 -0.0000
vn -0.0000 -1.0000 -0.0000
vt 0.962914 1.000000
vt -0.037086 1.000000
vt -0.037086 0.000000
vt 0.962914 0.000000
vt 0.037086 0.000000
vt 0.037086 1.000000
vt -0.962914 1.000000
vt -0.962914 0.000000
vt 49.962910 1.000000
vt 49.000271 1.000000
vt 49.000271 0.000000
vt 49.962910 0.000000
vt 23.500002 1.000000
vt 26.500002 1.000000
vt -49.000271 0.000000
vt -49.000271 1.000000
vt -49.962910 1.000000
vt -49.962910 0.000000
vt -23.499998 1.000000
vt -26.499996 1.000000
vt 0.009716 1.000000
vt -0.990282 1.000000
vt -0.990282 0.000000
vt 0.009716 0.000000
vt 0.990280 0.000000
vt 0.990280 1.000000
vt -0.009718 1.000000
vt -0.009718 0.000000
vt 0.990282 0.962914
vt -0.009718 0.962914
vt -0.009718 -0.037086
vt 0.990282 -0.037086
vt 0.009718 -0.037086
vt 0.009718 0.962914
vt -0.990280 0.962914
vt -0.990280 -0.037086
vt 0.990282 49.000271
vt -0.009718 49.000271
vt 0.990282 49.962910
vt -0.009718 49.962910
vt 0.009718 49.000271
vt -0.990280 49.000271
vt 0.009718 49.962910
vt -0.990280 49.962910
vt -49.035118 1.000000
vt -49.990280 1.000000
vt -49.990280 0.000000
vt -49.035118 0.000000
vt 49.990280 0.000000
vt 49.990280 1.000000
vt 49.035118 1.000000
vt 49.035118 0.000000
vt 49.990280 0.962914
vt 49.035118 0.962914
vt 49.035118 -0.037086
vt 49.990280 -0.037086
vt -49.035118 -0.037086
vt -49.035118 0.962914
vt -49.990280 0.962914
vt -49.990280 -0.037086
vt 49.990280 49.000271
vt 49.035118 49.000271
vt 49.990280 49.962910
vt 49.035118 49.962910
vt -49.035118 49.000271
vt -49.990280 49.000271
vt -49.035118 49.962910
vt -49.990280 49.962910
vt 0.009909 7.999973
vt -0.990091 7.999973
vt -0.990089 0.999973
vt 0.009909 0.999973
vt 49.962910 8.000000
vt 49.000271 8.000000
vt 0.990282 8.000000
vt -0.009718 8.000000
vt -49.000271 8.000000
vt -49.962910 8.000000
vt -23.499998 3.000000
vt -0.962914 8.000000
vt -26.499996 3.000000
vt 0.037086 8.000000
vt 0.962914 8.000000
vt -0.037086 8.000000
vt 49.990280 8.000000
vt 49.035118 8.000000
vt 23.500004 3.000000
vt 26.500002 3.000000
vt -49.035320 8.000000
vt -49.990479 8.000000
vt -0.990282 8.000000
vt 49.035118 23.500004
vt 49.035118 26.500002
vt 0.990282 26.499996
vt 0.990282 23.499998
vt 23.499998 1.000000
vt 23.500000 3.000000
vt 26.499998 3.000000
vt 26.499996 1.000000
vt -26.500002 1.000000
vt -26.500004 3.000000
vt -23.500002 3.000000
vt -23.500002 1.000000
vt 0.625000 0.000000
vt 0.375000 0.062500
vt 0.375000 0.250000
vt 0.625000 0.187500
vt 0.625000 0.500000
vt 0.375000 0.562500
vt 0.375000 0.750000
vt 0.625000 0.687500
vt 0.125000 0.577583
vt 0.125000 0.579395
vt 0.125000 0.672454
vt 0.125000 0.670557
vt 0.625000 0.577583
vt 0.625000 0.579395
vt 0.625000 0.670557
vt 0.625000 0.672454
s 0
usemtl buildMat
f 4/1/1 3/2/1 2/3/1 1/4/1
f 5/5/2 8/6/2 7/7/2 6/8/2
f 12/9/1 11/10/1 10/11/1 9/12/1
f 49/13/1 4/1/1 1/4/1 10/11/1 11/10/1 50/14/1
f 16/15/2 15/16/2 14/17/2 13/18/2
f 15/16/2 16/15/2 6/8/2 7/7/2 51/19/2 52/20/2
f 14/21/3 18/22/3 17/23/3 13/24/3
f 19/25/4 20/26/4 8/27/4 5/28/4
f 24/29/5 23/30/5 22/31/5 21/32/5
f 5/33/6 6/34/6 25/35/6 19/36/6
f 27/37/5 26/38/5 23/30/5 24/29/5
f 29/39/5 28/40/5 26/38/5 27/37/5
f 25/35/6 6/34/6 16/41/6 30/42/6
f 16/41/6 13/43/6 17/44/6 30/42/6
f 32/45/3 12/46/3 9/47/3 31/48/3
f 2/49/4 3/50/4 33/51/4 34/52/4
f 38/53/5 37/54/5 36/55/5 35/56/5
f 34/57/6 39/58/6 1/59/6 2/60/6
f 41/61/5 40/62/5 37/54/5 38/53/5
f 43/63/5 42/64/5 40/62/5 41/61/5
f 39/58/6 44/65/6 10/66/6 1/59/6
f 44/65/6 31/67/6 9/68/6 10/66/6
f 28/69/3 29/70/3 18/71/3 14/72/3
f 43/73/1 41/74/1 11/10/1 12/9/1
f 21/75/4 22/76/4 8/27/4 20/26/4
f 26/77/2 28/78/2 14/17/2 15/16/2
f 54/79/2 51/19/2 7/7/2 23/80/2 26/77/2 15/16/2 52/20/2 53/81/2
f 22/82/2 23/80/2 7/7/2 8/6/2
f 38/83/1 35/84/1 3/2/1 4/1/1
f 35/85/4 36/86/4 33/51/4 3/50/4
f 50/14/1 11/10/1 41/74/1 38/83/1 4/1/1 49/13/1 56/87/1 55/88/1
f 42/89/3 43/90/3 12/46/3 32/45/3
f 25/35/6 30/42/6 44/65/6 39/58/6
f 29/91/3 42/89/3 32/45/3 18/22/3
f 30/42/6 17/44/6 31/67/6 44/65/6
f 47/29/5 45/54/5 63/92/5 64/93/5 46/62/5 48/37/5 60/94/5 59/95/5
f 34/52/4 33/51/4 20/26/4 19/25/4
f 19/36/6 25/35/6 39/58/6 34/57/6
f 27/74/1 24/83/1 47/1/1 59/96/1 58/97/1 57/98/1 60/99/1 48/10/1
f 32/45/3 31/48/3 17/23/3 18/22/3
f 21/75/4 20/26/4 33/51/4 36/86/4
f 37/54/5 24/29/5 21/32/5 36/55/5
f 29/39/5 27/37/5 40/62/5 42/64/5
f 45/7/2 37/80/2 40/77/2 46/16/2 64/100/2 61/101/2 62/102/2 63/103/2
f 47/22/3 24/91/3 37/89/3 45/45/3
f 46/51/4 40/86/4 27/75/4 48/26/4
usemtl 
f 57/104/4 53/104/4 52/105/4 60/105/4
f 64/106/4 50/106/4 55/107/4 61/107/4
f 56/108/3 49/109/3 63/109/3 62/108/3
f 59/110/3 51/110/3 54/111/3 58/111/3
f 49/112/5 50/112/5 64/113/5 63/113/5
f 52/114/5 51/114/5 59/115/5 60/115/5
f 55/116/6 56/116/6 62/117/6 61/117/6
f 58/118/6 54/119/6 53/119/6 57/118/6
