# Blender 3.6.5
# www.blender.org
mtllib arena_deadend.mtl
o arena_deadend
v -49.990280 0.000000 0.962914
v -49.990280 -0.000000 -0.037086
v -49.990280 1.000000 -0.037087
v -49.990280 1.000000 0.962913
v 0.009718 -0.000000 -0.037086
v 0.009718 0.000000 0.962914
v 0.009718 1.000000 0.962913
v 0.009718 1.000000 -0.037087
v -49.990280 0.000004 49.962910
v -49.990280 0.000004 49.000271
v -49.990280 1.000004 49.000271
v -49.990280 1.000004 49.962910
v 0.009718 0.000004 49.962910
v 0.009718 1.000004 49.962910
v 0.009718 1.000004 49.000271
v 0.009718 0.000004 49.000271
v -0.990280 0.000004 49.962910
v -0.990280 1.000004 49.962910
v -0.990280 -0.000000 -0.037086
v -0.990280 1.000000 -0.037087
v -0.990282 8.000000 -0.037087
v 0.009718 8.000000 -0.037087
v 0.009718 8.000000 0.962913
v -0.990282 8.000000 0.962913
v -0.990280 0.000000 0.962914
v 0.009718 8.000004 49.000271
v -0.990282 8.000004 49.000271
v 0.009718 8.000004 49.962910
v -0.990282 8.000004 49.962910
v -0.990280 0.000004 49.000271
v -49.035118 0.000004 49.962910
v -49.035118 1.000004 49.962910
v -49.035118 1.000000 -0.037087
v -49.035118 -0.000000 -0.037086
v -49.990280 8.000000 -0.037087
v -49.035118 8.000000 -0.037087
v -49.035118 8.000000 0.962913
v -49.990280 8.000000 0.962913
v -49.035118 0.000000 0.962914
v -49.035118 8.000004 49.000271
v -49.990280 8.000004 49.000271
v -49.035118 8.000004 49.962910
v -49.990280 8.000004 49.962910
v -49.035118 0.000004 49.000271
v -49.035118 1.000000 0.962913
v -49.035118 1.000004 49.000271
v -0.990280 1.000000 0.962913
v -0.990280 1.000004 49.000271
v 0.009718 1.000002 23.499998
v 0.009718 1.000002 26.499998
v 0.009718 3.000002 26.499998
v 0.009718 3.000002 23.499998
v -0.990281 3.000002 26.499998
v -0.990281 3.000002 23.499998
v -0.990280 1.000002 23.499998
v -0.990280 1.000002 26.499998
vn -1.0000 -0.0000 -0.0000
vn 1.0000 -0.0000 -0.0000
vn -0.0000 -0.0000 1.0000
vn -0.0000 -0.0000 -1.0000
vn -0.0000 1.0000 -0.0000
vn -0.0000 -1.0000 -0.0000
vt 0.962914 1.000000
vt -0.037086 1.000000
vt -0.037086 0.000000
vt 0.962914 0.000000
vt 0.037086 0.000000
vt 0.037086 1.000000
vt -0.962914 1.000000
vt -0.962914 0.000000
vt 49.962910 1.000000
vt 49.000271 1.000000
vt 49.000271 0.000000
vt 49.962910 0.000000
vt 49.000271 8.000000
vt 0.962914 8.000000
vt -49.000271 0.000000
vt -49.000271 1.000000
vt -49.962910 1.000000
vt -49.962910 0.000000
vt -23.499998 1.000000
vt -26.499996 1.000000
vt 0.009716 1.000000
vt -0.990282 1.000000
vt -0.990282 0.000000
vt 0.009716 0.000000
vt 0.990280 0.000000
vt 0.990280 1.000000
vt -0.009718 1.000000
vt -0.009718 0.000000
vt 0.990282 0.962914
vt -0.009718 0.962914
vt -0.009718 -0.037086
vt 0.990282 -0.037086
vt 0.009718 -0.037086
vt 0.009718 0.962914
vt -0.990280 0.962914
vt -0.990280 -0.037086
vt 0.990282 49.000271
vt -0.009718 49.000271
vt 0.990282 49.962910
vt -0.009718 49.962910
vt 0.009718 49.000271
vt -0.990280 49.000271
vt 0.009718 49.962910
vt -0.990280 49.962910
vt -49.035118 1.000000
vt -49.990280 1.000000
vt -49.990280 0.000000
vt -49.035118 0.000000
vt 49.990280 0.000000
vt 49.990280 1.000000
vt 49.035118 1.000000
vt 49.035118 0.000000
vt 49.990280 0.962914
vt 49.035118 0.962914
vt 49.035118 -0.037086
vt 49.990280 -0.037086
vt -49.035118 -0.037086
vt -49.035118 0.962914
vt -49.990280 0.962914
vt -49.990280 -0.037086
vt 49.990280 49.000271
vt 49.035118 49.000271
vt 49.990280 49.962910
vt 49.035118 49.962910
vt -49.035118 49.000271
vt -49.990280 49.000271
vt -49.035118 49.962910
vt -49.990280 49.962910
vt 0.009909 7.999973
vt -0.990091 7.999973
vt -0.990089 0.999973
vt 0.009909 0.999973
vt 49.962910 8.000000
vt 0.990282 8.000000
vt -0.009718 8.000000
vt -49.000271 8.000000
vt -49.962910 8.000000
vt -23.499998 3.000000
vt -0.962914 8.000000
vt -26.499996 3.000000
vt 0.037086 8.000000
vt -0.037086 8.000000
vt 49.990280 8.000000
vt 49.035118 8.000000
vt -49.035320 8.000000
vt -49.990479 8.000000
vt 0.990282 26.499996
vt 0.990282 23.499998
vt 0.625000 0.000000
vt 0.375000 0.062500
vt 0.375000 0.750000
vt 0.625000 0.687500
vt 0.125000 0.672454
vt 0.125000 0.670557
vt 0.625000 0.670557
vt 0.625000 0.672454
vt -0.990282 8.000000
vt 23.499998 1.000000
vt 23.500000 3.000000
vt 26.499998 3.000000
vt 26.499996 1.000000
s 0
usemtl buildMat
f 4/1/1 3/2/1 2/3/1 1/4/1
f 5/5/2 8/6/2 7/7/2 6/8/2
f 12/9/1 11/10/1 10/11/1 9/12/1
f 16/15/2 15/16/2 14/17/2 13/18/2
f 15/16/2 16/15/2 6/8/2 7/7/2 49/19/2 50/20/2
f 14/21/3 18/22/3 17/23/3 13/24/3
f 19/25/4 20/26/4 8/27/4 5/28/4
f 24/29/5 23/30/5 22/31/5 21/32/5
f 5/33/6 6/34/6 25/35/6 19/36/6
f 27/37/5 26/38/5 23/30/5 24/29/5
f 29/39/5 28/40/5 26/38/5 27/37/5
f 25/35/6 6/34/6 16/41/6 30/42/6
f 16/41/6 13/43/6 17/44/6 30/42/6
f 32/45/3 12/46/3 9/47/3 31/48/3
f 2/49/4 3/50/4 33/51/4 34/52/4
f 38/53/5 37/54/5 36/55/5 35/56/5
f 34/57/6 39/58/6 1/59/6 2/60/6
f 41/61/5 40/62/5 37/54/5 38/53/5
f 43/63/5 42/64/5 40/62/5 41/61/5
f 39/58/6 44/65/6 10/66/6 1/59/6
f 44/65/6 31/67/6 9/68/6 10/66/6
f 28/69/3 29/70/3 18/71/3 14/72/3
f 43/73/1 41/13/1 11/10/1 12/9/1
f 21/74/4 22/75/4 8/27/4 20/26/4
f 26/76/2 28/77/2 14/17/2 15/16/2
f 52/78/2 49/19/2 7/7/2 23/79/2 26/76/2 15/16/2 50/20/2 51/80/2
f 22/81/2 23/79/2 7/7/2 8/6/2
f 38/14/1 35/82/1 3/2/1 4/1/1
f 35/83/4 36/84/4 33/51/4 3/50/4
f 42/85/3 43/86/3 12/46/3 32/45/3
f 25/35/6 30/42/6 44/65/6 39/58/6
f 46/51/4 40/84/4 27/74/4 48/26/4
f 30/42/6 17/44/6 31/67/6 44/65/6
f 47/29/5 45/54/5 46/62/5 48/37/5 56/87/5 55/88/5
f 34/52/4 33/51/4 20/26/4 19/25/4
f 19/36/6 25/35/6 39/58/6 34/57/6
f 21/74/4 20/26/4 33/51/4 36/84/4
f 45/7/2 37/79/2 40/76/2 46/16/2
f 37/54/5 24/29/5 21/32/5 36/55/5
f 29/39/5 27/37/5 40/62/5 42/64/5
f 32/45/3 31/48/3 17/23/3 18/22/3 29/97/3 42/85/3
f 27/13/1 24/14/1 47/1/1 55/98/1 54/99/1 53/100/1 56/101/1 48/10/1
f 24/97/3 37/85/3 45/45/3 47/22/3
usemtl 
f 4/1/1 1/4/1 10/11/1 11/10/1 41/13/1 38/14/1
f 53/89/4 51/89/4 50/90/4 56/90/4
f 55/91/3 49/91/3 52/92/3 54/92/3
f 50/93/5 49/93/5 55/94/5 56/94/5
f 54/95/6 52/96/6 51/96/6 53/95/6
