# Blender 3.6.5
# www.blender.org
mtllib arena_two_way.mtl
o arena_
v -49.990280 0.000000 0.962914
v -49.990280 -0.000000 -0.037086
v -49.990280 1.000000 -0.037087
v -49.990280 1.000000 0.962913
v 0.009718 -0.000000 -0.037086
v 0.009718 0.000000 0.962914
v 0.009718 1.000000 0.962913
v 0.009718 1.000000 -0.037087
v -49.990280 0.000004 49.962910
v -49.990280 0.000004 49.000271
v -49.990280 1.000004 49.000271
v -49.990280 1.000004 49.962910
v 0.009718 0.000004 49.962910
v 0.009718 1.000004 49.962910
v 0.009718 1.000004 49.000271
v 0.009718 0.000004 49.000271
v -0.990280 0.000004 49.962910
v -0.990280 1.000004 49.962910
v -0.990280 -0.000000 -0.037086
v -0.990280 1.000000 -0.037087
v -0.990282 8.000000 -0.037087
v 0.009718 8.000000 -0.037087
v 0.009718 8.000000 0.962913
v -0.990282 8.000000 0.962913
v -0.990280 0.000000 0.962914
v 0.009718 8.000004 49.000271
v -0.990282 8.000004 49.000271
v 0.009718 8.000004 49.962910
v -0.990282 8.000004 49.962910
v -0.990280 0.000004 49.000271
v -49.035118 0.000004 49.962910
v -49.035118 1.000004 49.962910
v -49.035118 1.000000 -0.037087
v -49.035118 -0.000000 -0.037086
v -49.990280 8.000000 -0.037087
v -49.035118 8.000000 -0.037087
v -49.035118 8.000000 0.962913
v -49.990280 8.000000 0.962913
v -49.035118 0.000000 0.962914
v -49.035118 8.000004 49.000271
v -49.990280 8.000004 49.000271
v -49.035118 8.000004 49.962910
v -49.990280 8.000004 49.962910
v -49.035118 0.000004 49.000271
v -49.035118 1.000000 0.962913
v -49.035118 1.000004 49.000271
v -0.990280 1.000000 0.962913
v -0.990280 1.000004 49.000271
v 0.009718 1.000002 23.499998
v 0.009718 1.000002 26.499998
v 0.009718 3.000002 26.499998
v 0.009718 3.000002 23.499998
v -0.990281 3.000002 26.499998
v -0.990281 3.000002 23.499998
v -0.990280 1.000002 23.499998
v -0.990280 1.000002 26.499998
v -23.500000 1.000004 49.962910
v -26.500000 1.000004 49.962910
v -23.500000 1.000000 -0.037087
v -26.500000 1.000000 -0.037087
v -26.500000 1.000004 49.000271
v -26.500000 3.000004 49.000271
v -23.500000 1.000004 49.000271
v -23.500000 3.000004 49.000271
v -23.500000 3.000004 49.962910
v -26.500000 3.000004 49.962910
v -26.500000 3.000000 -0.037087
v -23.500000 3.000000 -0.037087
v -23.500000 1.000000 0.962913
v -23.500000 3.000000 0.962913
v -26.500000 1.000000 0.962913
v -26.500000 3.000000 0.962913
vn -1.0000 -0.0000 -0.0000
vn 1.0000 -0.0000 -0.0000
vn -0.0000 -0.0000 1.0000
vn -0.0000 -0.0000 -1.0000
vn -0.0000 1.0000 -0.0000
vn -0.0000 -1.0000 -0.0000
vt 0.962914 1.000000
vt -0.037086 1.000000
vt -0.037086 0.000000
vt 0.962914 0.000000
vt 0.037086 0.000000
vt 0.037086 1.000000
vt -0.962914 1.000000
vt -0.962914 0.000000
vt 49.962910 1.000000
vt 49.000271 1.000000
vt 49.000271 0.000000
vt 49.962910 0.000000
vt -49.000271 0.000000
vt -49.000271 1.000000
vt -49.962910 1.000000
vt -49.962910 0.000000
vt -23.499998 1.000000
vt -26.499996 1.000000
vt 0.009716 1.000000
vt -0.990282 1.000000
vt -0.990282 0.000000
vt 0.009716 0.000000
vt 0.990280 0.000000
vt 0.990280 1.000000
vt -0.009718 1.000000
vt -0.009718 0.000000
vt 0.990282 0.962914
vt -0.009718 0.962914
vt -0.009718 -0.037086
vt 0.990282 -0.037086
vt 0.009718 -0.037086
vt 0.009718 0.962914
vt -0.990280 0.962914
vt -0.990280 -0.037086
vt 0.990282 49.000271
vt -0.009718 49.000271
vt 0.990282 49.962910
vt -0.009718 49.962910
vt 0.009718 49.000271
vt -0.990280 49.000271
vt 0.009718 49.962910
vt -0.990280 49.962910
vt -49.035118 1.000000
vt -49.990280 1.000000
vt -49.990280 0.000000
vt -49.035118 0.000000
vt 49.990280 0.000000
vt 49.990280 1.000000
vt 49.035118 1.000000
vt 49.035118 0.000000
vt 49.990280 0.962914
vt 49.035118 0.962914
vt 49.035118 -0.037086
vt 49.990280 -0.037086
vt -49.035118 -0.037086
vt -49.035118 0.962914
vt -49.990280 0.962914
vt -49.990280 -0.037086
vt 49.990280 49.000271
vt 49.035118 49.000271
vt 49.990280 49.962910
vt 49.035118 49.962910
vt -49.035118 49.000271
vt -49.990280 49.000271
vt -49.035118 49.962910
vt -49.990280 49.962910
vt 0.009909 7.999973
vt -0.990091 7.999973
vt -0.990089 0.999973
vt 0.009909 0.999973
vt 49.962910 8.000000
vt 49.000271 8.000000
vt 0.990282 8.000000
vt -0.009718 8.000000
vt -49.000271 8.000000
vt -49.962910 8.000000
vt -23.499998 3.000000
vt -0.962914 8.000000
vt -26.499996 3.000000
vt 0.037086 8.000000
vt 0.962914 8.000000
vt -0.037086 8.000000
vt 49.990280 8.000000
vt 49.035118 8.000000
vt -49.035320 8.000000
vt -49.990479 8.000000
vt -0.990282 8.000000
vt -26.500002 1.000000
vt -26.500004 3.000000
vt -23.500000 3.000000
vt -23.500002 1.000000
vt 23.500002 1.000000
vt 23.500000 3.000000
vt 26.500000 3.000000
vt 26.500002 1.000000
vt 23.500002 0.962914
vt 26.500002 0.962914
vt 26.500002 49.000271
vt 23.500002 49.000275
vt 0.990282 26.499996
vt 0.990282 23.499998
vt 23.499998 1.000000
vt 26.499998 3.000000
vt 26.499996 1.000000
vt 23.500002 3.000000
vt 26.500000 3.000000
vt 0.625000 0.000000
vt 0.375000 0.062500
vt 0.375000 0.750000
vt 0.625000 0.687500
vt 0.125000 0.672454
vt 0.125000 0.670557
vt 0.625000 0.670557
vt 0.625000 0.672454
vt 0.375000 0.048530
vt 0.375000 0.050357
vt 0.625000 0.050357
vt 0.625000 0.048530
vt 0.375000 0.141504
vt 0.375000 0.143402
vt 0.625000 0.143402
vt 0.625000 0.141504
vt 0.625000 0.606598
vt 0.375000 0.606598
vt 0.375000 0.608495
vt 0.625000 0.608495
vt 0.625000 0.699643
vt 0.375000 0.699643
vt 0.375000 0.701470
vt 0.625000 0.701470
vt 0.375000 0.500000
vt 0.125000 0.750000
vt 0.875000 0.500000
vt 0.625000 0.750000
vt -23.499998 3.000000
vt -26.500000 3.000000
s 0
usemtl buildMat
f 4/1/1 3/2/1 2/3/1 1/4/1
f 5/5/2 8/6/2 7/7/2 6/8/2
f 12/9/1 11/10/1 10/11/1 9/12/1
f 4/1/1 1/4/1 10/11/1 11/10/1
f 16/13/2 15/14/2 14/15/2 13/16/2
f 15/14/2 16/13/2 6/8/2 7/7/2 49/17/2 50/18/2
f 14/19/3 18/20/3 17/21/3 13/22/3
f 19/23/4 20/24/4 8/25/4 5/26/4
f 24/27/5 23/28/5 22/29/5 21/30/5
f 5/31/6 6/32/6 25/33/6 19/34/6
f 27/35/5 26/36/5 23/28/5 24/27/5
f 29/37/5 28/38/5 26/36/5 27/35/5
f 25/33/6 6/32/6 16/39/6 30/40/6
f 16/39/6 13/41/6 17/42/6 30/40/6
f 32/43/3 12/44/3 9/45/3 31/46/3
f 2/47/4 3/48/4 33/49/4 34/50/4
f 38/51/5 37/52/5 36/53/5 35/54/5
f 34/55/6 39/56/6 1/57/6 2/58/6
f 41/59/5 40/60/5 37/52/5 38/51/5
f 43/61/5 42/62/5 40/60/5 41/59/5
f 39/56/6 44/63/6 10/64/6 1/57/6
f 44/63/6 31/65/6 9/66/6 10/64/6
f 28/67/3 29/68/3 18/69/3 14/70/3
f 43/71/1 41/72/1 11/10/1 12/9/1
f 21/73/4 22/74/4 8/25/4 20/24/4
f 26/75/2 28/76/2 14/15/2 15/14/2
f 52/77/2 49/17/2 7/7/2 23/78/2 26/75/2 15/14/2 50/18/2 51/79/2
f 22/80/2 23/78/2 7/7/2 8/6/2
f 38/81/1 35/82/1 3/2/1 4/1/1
f 35/83/4 36/84/4 33/49/4 3/48/4
f 4/1/1 11/10/1 41/72/1 38/81/1
f 42/85/3 43/86/3 12/44/3 32/43/3
f 25/33/6 30/40/6 44/63/6 39/56/6
f 29/87/3 42/85/3 32/43/3 58/88/3 66/89/3 65/90/3 57/91/3 18/20/3
f 30/40/6 17/42/6 31/65/6 44/63/6
f 46/49/4 40/84/4 27/73/4 48/24/4 63/92/4 64/93/4 62/94/4 61/95/4
f 69/96/5 71/97/5 45/52/5 46/60/5 61/98/5 63/99/5 48/35/5 56/100/5 55/101/5 47/27/5
f 34/50/4 33/49/4 60/95/4 59/92/4 20/24/4 19/23/4
f 19/34/6 25/33/6 39/56/6 34/55/6
f 27/72/1 24/81/1 47/1/1 55/102/1 54/93/1 53/103/1 56/104/1 48/10/1
f 32/43/3 31/46/3 17/21/3 18/20/3 57/91/3 58/88/3
f 21/73/4 20/24/4 59/92/4 68/105/4 67/106/4 60/95/4 33/49/4 36/84/4
f 37/52/5 24/27/5 21/30/5 36/53/5
f 29/37/5 27/35/5 40/60/5 42/62/5
f 45/7/2 37/78/2 40/75/2 46/14/2
f 70/135/3 69/91/3 47/20/3 24/87/3 37/85/3 45/43/3 71/88/3 72/136/3
usemtl 
f 53/107/4 51/107/4 50/108/4 56/108/4
f 55/109/3 49/109/3 52/110/3 54/110/3
f 50/111/5 49/111/5 55/112/5 56/112/5
f 54/113/6 52/114/6 51/114/6 53/113/6
f 58/115/2 61/116/2 62/117/2 66/118/2
f 71/119/2 60/120/2 67/121/2 72/122/2
f 68/123/1 59/124/1 69/125/1 70/126/1
f 64/127/1 63/128/1 57/129/1 65/130/1
f 69/131/5 59/131/5 60/132/5 71/132/5
f 61/132/5 58/132/5 57/131/5 63/131/5
f 72/133/6 67/133/6 68/134/6 70/134/6
f 66/133/6 62/133/6 64/134/6 65/134/6
